<svg width="1949" height="1949" viewBox="0 0 1949 1949" fill="none" xmlns="http://www.w3.org/2000/svg">
<path d="M1908.12 0H40.9C18.3297 0 0.0117188 18.3179 0.0117188 40.8883V1908.09C0.0117188 1930.66 18.3297 1948.98 40.9 1948.98H1032.95V1297.73H823.583C805.49 1297.73 790.831 1283.07 790.831 1264.98V1000.96C790.831 982.872 805.49 968.193 823.583 968.193H1032.97V785.974C1032.97 545.879 1184.16 390.749 1418.12 390.749L1626.4 391.076C1644.46 391.096 1659.11 405.755 1659.11 423.827V668.973C1659.11 687.066 1644.46 701.724 1626.36 701.724L1486.05 701.786C1389.37 701.786 1371.67 739.485 1371.67 813.717V968.193H1616.57C1625.26 968.193 1633.58 971.648 1639.73 977.802C1645.87 983.955 1649.32 992.276 1649.32 1000.96L1649.24 1265C1649.24 1283.09 1634.58 1297.77 1616.49 1297.77H1371.65V1949H1908.1C1930.67 1949 1948.99 1930.68 1948.99 1908.11V40.8883C1949.01 18.2975 1930.71 0 1908.12 0Z" fill="#FEFEFE"/>
</svg>
