<svg width="464" height="718" viewBox="0 0 464 718" fill="none" xmlns="http://www.w3.org/2000/svg">
<ellipse cx="53.4974" cy="53.4972" rx="53.4974" ry="53.4972" transform="matrix(0.672947 0.739691 -0.739696 0.672941 163.286 530.457)" fill="#FDA23E"/>
<path d="M323.429 40.3081C400.811 62.4974 446.088 141.356 424.557 216.443C420.461 230.724 414.243 243.839 406.327 255.564C407.11 256.656 407.127 258.233 406.107 259.347L198.357 486.228C196.685 488.054 193.644 487.182 193.194 484.748L137.241 182.251C136.966 180.766 137.815 179.436 139.058 178.925C138.559 164.787 140.234 150.37 144.329 136.089C165.86 61.0019 246.046 18.119 323.429 40.3081ZM312.779 86.9865C312.686 86.6131 312.223 86.4804 311.946 86.7478L294.153 103.929C293.917 104.157 293.528 104.099 293.369 103.812L282.34 83.9171C282.154 83.5807 281.673 83.5721 281.475 83.9016L270.115 102.806C269.946 103.087 269.555 103.132 269.327 102.895L254.006 87.0315C253.739 86.755 253.272 86.8717 253.166 87.2416L247.087 108.44C246.996 108.756 246.631 108.9 246.35 108.73L227.446 97.3717C227.116 97.1735 226.695 97.4069 226.688 97.7915L226.303 119.842C226.297 120.171 225.981 120.405 225.665 120.315L204.466 114.236C204.097 114.13 203.751 114.464 203.844 114.838L209.179 136.235C209.259 136.554 209.014 136.862 208.685 136.856L186.635 136.471C186.25 136.465 186.002 136.877 186.189 137.214L196.88 156.502C197.039 156.789 196.882 157.149 196.563 157.229L175.164 162.565C174.791 162.658 174.659 163.12 174.926 163.397L190.245 179.261C190.474 179.497 190.416 179.887 190.129 180.046L170.84 190.738C170.503 190.925 170.495 191.406 170.825 191.604L189.728 202.962C190.01 203.132 190.055 203.523 189.818 203.751L173.956 219.071C173.679 219.338 173.795 219.805 174.165 219.911L195.364 225.99C195.68 226.08 195.824 226.446 195.655 226.728L184.296 245.631C184.097 245.961 184.331 246.382 184.716 246.389L206.766 246.774C207.095 246.78 207.328 247.095 207.238 247.411L201.159 268.611C201.053 268.981 201.387 269.327 201.761 269.234L223.159 263.898C223.478 263.818 223.786 264.063 223.78 264.392L223.396 286.443C223.389 286.828 223.801 287.076 224.138 286.889L245.693 274.941C245.98 274.782 246.341 274.938 246.42 275.257L251.756 296.656C251.849 297.029 252.312 297.162 252.589 296.895L266.522 283.437C266.759 283.209 267.147 283.267 267.306 283.555L277.663 302.236C277.849 302.573 278.331 302.581 278.529 302.251L289.888 283.347C290.057 283.066 290.447 283.021 290.676 283.257L305.995 299.121C306.262 299.398 306.729 299.282 306.835 298.912L312.914 277.712C313.005 277.396 313.371 277.253 313.653 277.422L332.557 288.781C332.887 288.979 333.307 288.746 333.314 288.361L333.699 266.311C333.705 265.982 334.021 265.749 334.337 265.84L355.535 271.918C355.905 272.024 356.252 271.69 356.159 271.317L350.822 249.916C350.743 249.597 350.988 249.289 351.317 249.295L373.368 249.681C373.753 249.688 374 249.276 373.813 248.939L363.121 229.65C362.962 229.363 363.119 229.002 363.438 228.922L384.837 223.588C385.21 223.495 385.343 223.033 385.075 222.756L369.755 206.891C369.527 206.654 369.585 206.266 369.872 206.107L389.162 195.416C389.499 195.229 389.508 194.748 389.178 194.55L370.273 183.191C369.991 183.021 369.946 182.63 370.183 182.402L386.048 167.084C386.325 166.817 386.208 166.35 385.838 166.243L364.639 160.165C364.323 160.074 364.178 159.708 364.348 159.426L375.707 140.522C375.905 140.192 375.672 139.772 375.287 139.765L353.237 139.379C352.908 139.373 352.674 139.057 352.764 138.741L358.843 117.544C358.949 117.174 358.615 116.827 358.241 116.92L336.842 122.254C336.523 122.334 336.216 122.089 336.222 121.76L336.607 99.7104C336.613 99.3258 336.2 99.0782 335.864 99.2647L318.841 108.701C318.553 108.86 318.193 108.703 318.114 108.385L312.779 86.9865ZM301.45 122.393C341.215 133.795 364.207 175.274 352.805 215.038C341.403 254.803 299.923 277.796 260.158 266.393C220.393 254.991 197.401 213.511 208.803 173.747C220.206 133.982 261.685 110.99 301.45 122.393ZM285.937 216.573C284.876 216.269 283.768 216.883 283.463 217.944L275.266 246.53C275.108 247.083 275.431 247.66 275.985 247.813C281.032 249.157 286.22 249.769 291.289 249.616C296.697 249.453 301.864 248.422 306.494 246.583C311.124 244.744 315.127 242.132 318.275 238.897C323.316 233.716 319.208 226.113 312.259 224.12L285.937 216.573ZM238.364 202.931C231.416 200.94 223.903 205.211 225.432 212.275C226.388 216.686 228.399 221.023 231.35 225.036C234.302 229.049 238.138 232.661 242.637 235.665C246.854 238.481 251.58 240.711 256.571 242.245C257.122 242.41 257.702 242.092 257.86 241.539L266.057 212.953C266.362 211.891 265.748 210.784 264.686 210.479L238.364 202.931ZM245.071 162.223C235.826 159.572 226.181 164.919 223.529 174.165C220.879 183.41 226.225 193.055 235.47 195.706L266.381 204.57C267.442 204.874 268.55 204.26 268.854 203.199L277.353 173.56C277.657 172.498 277.044 171.391 275.982 171.086L245.071 162.223ZM297.233 177.18C296.171 176.876 295.064 177.49 294.759 178.551L286.26 208.19C285.956 209.251 286.57 210.359 287.632 210.663L318.542 219.527C327.788 222.178 337.432 216.831 340.084 207.586C342.735 198.34 337.389 188.695 328.143 186.043L297.233 177.18ZM286.704 133.699C281.95 132.521 277.084 131.99 272.324 132.133C266.917 132.297 261.749 133.328 257.12 135.167C252.49 137.007 248.486 139.619 245.338 142.854C240.298 148.034 244.406 155.637 251.354 157.63L277.676 165.178C278.738 165.482 279.845 164.868 280.15 163.807L288.084 136.137C288.388 135.076 287.776 133.964 286.704 133.699ZM307.953 139.792C306.903 139.449 305.794 140.067 305.49 141.129L297.556 168.798C297.252 169.859 297.866 170.967 298.927 171.271L325.249 178.819C332.197 180.811 339.71 176.54 338.181 169.476C337.226 165.065 335.215 160.728 332.263 156.715C329.311 152.701 325.475 149.088 320.977 146.084C317.016 143.44 312.608 141.312 307.953 139.792ZM361.102 72.507C360.606 72.0243 359.781 72.1797 359.494 72.8099L348.271 97.5072C348.226 97.6072 348.198 97.7141 348.187 97.8233L347.419 105.714C347.353 106.388 347.961 106.931 348.623 106.789L357.496 104.888C357.631 104.859 357.759 104.802 357.872 104.721L377.752 90.353C378.255 89.9892 378.309 89.2592 377.864 88.8259L361.102 72.507Z" fill="#FDA23E"/>
</svg>
