<svg width="2025" height="1973" viewBox="0 0 2025 1973" fill="none" xmlns="http://www.w3.org/2000/svg">
<path fill-rule="evenodd" clip-rule="evenodd" d="M1012.5 0C453.094 0 0 452.625 0 1011.45C0 1459.02 289.828 1837.05 692.297 1971.07C742.922 1979.92 761.906 1949.57 761.906 1923.02C761.906 1899 760.641 1819.35 760.641 1734.64C506.25 1781.42 440.437 1672.69 420.187 1615.8C408.797 1586.72 359.438 1496.95 316.406 1472.93C280.969 1453.96 230.344 1407.18 315.141 1405.92C394.875 1404.65 451.828 1479.25 470.812 1509.59C561.937 1662.57 707.484 1619.59 765.703 1593.04C774.563 1527.29 801.141 1483.04 830.25 1457.76C604.969 1432.47 369.563 1345.23 369.563 958.351C369.563 848.356 408.797 757.325 473.344 686.523C463.219 661.237 427.781 557.563 483.469 418.488C483.469 418.488 568.266 391.938 761.906 522.162C842.906 499.405 928.969 488.026 1015.03 488.026C1101.09 488.026 1187.16 499.405 1268.16 522.162C1461.8 390.673 1546.59 418.488 1546.59 418.488C1602.28 557.563 1566.84 661.237 1556.72 686.523C1621.27 757.325 1660.5 847.091 1660.5 958.351C1660.5 1346.5 1423.83 1432.47 1198.55 1457.76C1235.25 1489.36 1266.89 1550.05 1266.89 1644.87C1266.89 1780.16 1265.63 1888.89 1265.63 1923.02C1265.63 1949.57 1284.61 1981.18 1335.23 1971.07C1735.17 1837.05 2025 1457.76 2025 1011.45C2025 452.625 1571.91 0 1012.5 0Z" fill="#FEFEFE"/>
</svg>
