<svg width="629" height="163" viewBox="0 0 629 163" fill="none" xmlns="http://www.w3.org/2000/svg">
<path d="M341.089 108.168L362.448 60.0918H377.909L333.021 163H316.729L332.638 127.189L300.604 60.0918H319.39L341.089 108.168ZM410.66 105.645C410.882 109.302 411.935 112.238 413.819 114.455C415.703 116.672 418.696 117.892 422.797 118.113C426.565 118.113 429.945 117.005 432.938 114.788C435.93 112.461 438.258 109.302 439.921 105.312C441.694 101.322 442.58 96.833 442.58 91.8457V60.0918H459.372V129.584H444.243L443.196 116.771C441.055 121.17 437.636 124.832 432.938 127.756C428.061 130.859 422.464 132.41 416.146 132.41C409.718 132.41 404.453 130.471 400.353 126.592C396.252 122.713 394.091 117.725 393.869 111.629V60.0918H410.66V105.645ZM16.791 86.4775L52.2021 58.5957L62.3438 67.5732L36.9287 87.8213L65.6689 129.584H46.0508L25.373 97.0273L16.791 103.865V129.584H0V0.408203H16.791V86.4775ZM262.349 57.2656C269.22 57.2656 274.652 59.2048 278.642 63.084C282.632 66.8523 284.682 71.8402 284.793 78.0469V129.584H268.168V84.3643C268.057 80.8176 267.225 77.8802 265.674 75.5527C264.233 73.2253 261.572 71.9512 257.693 71.7295C253.704 71.7296 250.157 72.9485 247.054 75.3867C244.061 77.825 241.679 80.9841 239.905 84.8633C238.243 88.7424 237.356 92.8988 237.245 97.332V129.584H220.454V84.3643C220.343 80.8176 219.456 77.8802 217.794 75.5527C216.242 73.2253 213.527 71.9512 209.647 71.7295C205.768 71.7295 202.277 72.9484 199.174 75.3867C196.181 77.825 193.854 81.0393 192.191 85.0293C190.529 88.9085 189.697 93.0647 189.697 97.498V129.584H172.906V60.0918H188.035L189.286 72.748C191.791 68.0864 195.197 64.4213 199.506 61.7539C204.272 58.7614 209.703 57.2656 215.799 57.2656C221.562 57.2656 226.384 58.5959 230.263 61.2559C233.989 63.8114 236.334 67.3899 237.299 71.9912C239.982 67.5937 243.455 64.1258 247.719 61.5879C252.374 58.7063 257.25 57.2656 262.349 57.2656ZM509.369 60.2578H527.988V73.3916H509.369V129.584H492.411V73.3916H480.108V60.2578H492.411V29.668H509.369V60.2578Z" fill="#FC711C"/>
<ellipse cx="563.511" cy="132.723" rx="15.0707" ry="15.0707" transform="rotate(31.7053 563.511 132.723)" fill="#349C1C"/>
<path d="M599.039 8.57544C615.555 13.3115 625.219 30.1431 620.624 46.1699C619.425 50.35 617.373 54.0612 614.704 57.1816C614.574 57.5208 614.38 57.8459 614.112 58.1384L575.543 100.26C573.87 102.086 570.83 101.215 570.379 98.7796L559.992 42.6198C559.92 42.2298 559.926 41.8507 559.996 41.4942C559.386 37.4337 559.613 33.1989 560.812 29.019C565.407 12.9923 582.522 3.83943 599.039 8.57544ZM594.904 22.9944C586.941 20.7109 578.634 25.3154 576.351 33.2787C574.067 41.2421 578.672 49.5488 586.635 51.8322C594.599 54.1157 602.905 49.5112 605.189 41.5479C607.472 33.5845 602.868 25.2778 594.904 22.9944Z" fill="#349C1C"/>
<path d="M120.355 56.8273C120.519 57.112 120.909 57.1633 121.142 56.9308L125.804 52.2687C126.076 51.9965 126.541 52.1211 126.64 52.4929L128.605 59.8286C128.69 60.1462 129.053 60.2966 129.338 60.1323L135.916 56.3352C136.25 56.1428 136.666 56.3834 136.666 56.7683V64.3622C136.666 64.6909 136.978 64.9302 137.296 64.8451L144.632 62.8803C145.004 62.7807 145.344 63.1209 145.245 63.4927L143.278 70.8296C143.193 71.1471 143.432 71.459 143.761 71.459H151.357C151.742 71.459 151.982 71.8757 151.79 72.2091L147.991 78.7853C147.827 79.07 147.977 79.4332 148.295 79.5183L155.632 81.4848C156.004 81.5844 156.129 82.0492 155.857 82.3213L150.485 87.6916C150.253 87.9241 150.304 88.3138 150.589 88.4782L157.166 92.2759C157.499 92.4684 157.499 92.9495 157.166 93.1419L150.588 96.9379C150.303 97.1023 150.252 97.492 150.484 97.7245L155.856 103.096C156.128 103.368 156.003 103.833 155.631 103.932L148.296 105.897C147.978 105.982 147.828 106.345 147.992 106.63L151.79 113.208C151.982 113.541 151.742 113.958 151.357 113.958H143.76C143.431 113.958 143.192 114.27 143.277 114.587L145.244 121.924C145.343 122.296 145.003 122.636 144.631 122.536L137.296 120.57C136.978 120.485 136.666 120.724 136.666 121.053V128.649C136.666 129.034 136.25 129.274 135.916 129.082L129.339 125.284C129.054 125.119 128.691 125.27 128.606 125.587L126.64 132.924C126.541 133.296 126.076 133.421 125.804 133.148L120.623 127.968C120.391 127.735 120.001 127.786 119.837 128.071L116.558 133.75C116.366 134.083 115.885 134.083 115.692 133.75L111.894 127.172C111.73 126.887 111.34 126.836 111.108 127.068L105.03 133.148C104.757 133.42 104.293 133.296 104.193 132.924L102.227 125.587C102.141 125.27 101.778 125.119 101.494 125.284L94.9162 129.082C94.5829 129.274 94.1662 129.034 94.1662 128.649V121.053C94.1662 120.724 93.8543 120.485 93.5368 120.57L86.201 122.537C85.8292 122.636 85.489 122.296 85.5886 121.924L87.5542 114.588C87.6393 114.271 87.4 113.959 87.0712 113.959H79.4764C79.0915 113.959 78.8509 113.542 79.0433 113.209L82.8396 106.631C83.0039 106.346 82.8535 105.983 82.536 105.898L75.2009 103.932C74.8292 103.833 74.7046 103.368 74.9768 103.096L80.347 97.7254C80.5795 97.493 80.5282 97.1032 80.2435 96.9389L73.666 93.1419C73.3327 92.9495 73.3327 92.4684 73.6659 92.2759L80.2427 88.4763C80.5274 88.3119 80.5786 87.9222 80.3461 87.6898L74.9769 82.3213C74.7047 82.0492 74.8292 81.5844 75.2009 81.4848L82.5369 79.5183C82.8544 79.4332 83.0048 79.0701 82.8404 78.7854L79.0436 72.209C78.8511 71.8757 79.0917 71.459 79.4766 71.459H87.0713C87.4 71.459 87.6393 71.1472 87.5542 70.8296L85.5885 63.4927C85.4889 63.1209 85.8291 62.7807 86.2009 62.8803L93.5369 64.8451C93.8544 64.9302 94.1662 64.6909 94.1662 64.3621V56.7684C94.1662 56.3835 94.5829 56.143 94.9162 56.3354L101.494 60.1332C101.778 60.2976 102.141 60.1472 102.227 59.8296L104.193 52.4927C104.293 52.1209 104.757 51.9964 105.03 52.2686L110.589 57.8284C110.822 58.0608 111.211 58.0095 111.376 57.7248L115.692 50.25C115.885 49.9167 116.366 49.9167 116.558 50.25L120.355 56.8273ZM115.856 64.1553C99.8633 64.1553 86.8986 77.1199 86.8986 93.1123C86.8989 109.105 99.8634 122.068 115.856 122.068C131.848 122.068 144.812 109.105 144.813 93.1123C144.813 77.1199 131.848 64.1553 115.856 64.1553Z" fill="#349C1C"/>
<path d="M110.354 100.808C111.458 100.808 112.354 101.703 112.354 102.808V113.077C112.353 113.3 112.172 113.48 111.949 113.478C109.931 113.439 107.938 113.114 106.07 112.517C104.078 111.88 102.268 110.947 100.743 109.77C99.2187 108.593 98.0097 107.195 97.1846 105.658C95.8634 103.195 98.1998 100.808 100.994 100.808H110.354ZM130.713 100.808C133.507 100.808 135.844 103.195 134.522 105.658C133.697 107.195 132.488 108.593 130.964 109.77C129.439 110.947 127.629 111.88 125.637 112.517C123.769 113.114 121.776 113.439 119.758 113.478C119.535 113.48 119.354 113.3 119.354 113.077V102.808C119.354 101.703 120.249 100.808 121.354 100.808H130.713ZM110.354 84.9652C111.458 84.9652 112.354 85.8606 112.354 86.9652V96.431C112.353 97.5355 111.458 98.431 110.354 98.431H99.1494C95.431 98.4309 92.4162 95.416 92.416 91.6976C92.4163 87.9793 95.431 84.9653 99.1494 84.9652H110.354ZM132.558 84.9652C136.276 84.9652 139.291 87.9792 139.291 91.6976C139.291 95.416 136.276 98.431 132.558 98.431H121.354C120.249 98.4309 119.354 97.5355 119.354 96.431V86.9652C119.354 85.8607 120.249 84.9653 121.354 84.9652H132.558ZM110.356 70.0082C111.456 69.9041 112.354 70.8098 112.354 71.9144V80.5882C112.353 81.6928 111.458 82.5882 110.354 82.5882H100.994C98.1999 82.588 95.8638 80.2008 97.1846 77.7386C98.0096 76.201 99.2187 74.8032 100.743 73.6263C102.268 72.4495 104.078 71.5162 106.07 70.8792C107.444 70.44 108.886 70.1473 110.356 70.0082ZM121.351 70.0082C122.821 70.1472 124.263 70.44 125.637 70.8792C127.629 71.5162 129.439 72.4495 130.964 73.6263C132.488 74.8032 133.697 76.201 134.522 77.7386C135.843 80.2009 133.507 82.5881 130.713 82.5882H121.354C120.249 82.5881 119.354 81.6927 119.354 80.5882V71.9144C119.354 70.8099 120.251 69.9042 121.351 70.0082Z" fill="#D7C02B"/>
<path d="M131.009 52.2337C131.132 52.8993 131.866 53.2534 132.463 52.9348L134.704 51.7389C134.827 51.6735 134.934 51.5834 135.02 51.4743L140.346 44.6918C140.73 44.2033 140.58 43.487 140.033 43.1932L133.477 39.673C132.866 39.3454 132.116 39.7222 132.014 40.4073L130.619 49.8169C130.602 49.9258 130.604 50.0366 130.624 50.1448L131.009 52.2337Z" fill="#349C1C"/>
</svg>
