<svg xmlns="http://www.w3.org/2000/svg" xmlns:xlink="http://www.w3.org/1999/xlink" width="1587" zoomAndPan="magnify" viewBox="0 0 1190.25 1683.749949" height="2245" preserveAspectRatio="xMidYMid meet" version="1.2"><defs><clipPath id="d8b197cad9"><path d="M 286.96875 393.664062 L 359.410156 393.664062 L 359.410156 694.882812 L 286.96875 694.882812 Z M 286.96875 393.664062 "/></clipPath><clipPath id="63a543d143"><path d="M 288.519531 393.664062 L 324.742188 393.664062 L 324.742188 694.882812 L 288.519531 694.882812 Z M 288.519531 393.664062 "/></clipPath><clipPath id="859f09deb0"><path d="M 335.265625 490.925781 L 974.488281 490.925781 L 974.488281 1683.09375 L 335.265625 1683.09375 Z M 335.265625 490.925781 "/></clipPath><clipPath id="9a14c8c94c"><path d="M 347.300781 487.457031 L 619.285156 487.457031 L 619.285156 1683.09375 L 347.300781 1683.09375 Z M 347.300781 487.457031 "/></clipPath><clipPath id="9481e20131"><path d="M 614.308594 775.632812 L 974.488281 775.632812 L 974.488281 1214.460938 L 614.308594 1214.460938 Z M 614.308594 775.632812 "/></clipPath><clipPath id="2ee2a2e128"><path d="M 614.308594 1249.578125 L 974.488281 1249.578125 L 974.488281 1683.09375 L 614.308594 1683.09375 Z M 614.308594 1249.578125 "/></clipPath><clipPath id="b5f1aef7a6"><path d="M 619.285156 775.632812 L 728.550781 775.632812 L 728.550781 1683.09375 L 619.285156 1683.09375 Z M 619.285156 775.632812 "/></clipPath><clipPath id="d5fea7eebf"><path d="M 616.796875 775.632812 L 673.917969 775.632812 L 673.917969 1683.09375 L 616.796875 1683.09375 Z M 616.796875 775.632812 "/></clipPath><clipPath id="b3da9a56ff"><path d="M 728.550781 1236.683594 L 974.488281 1236.683594 L 974.488281 1269.914062 L 728.550781 1269.914062 Z M 728.550781 1236.683594 "/></clipPath><clipPath id="b943f3cc14"><path d="M 960.136719 601.355469 L 1070.542969 601.355469 L 1070.542969 1683.09375 L 960.136719 1683.09375 Z M 960.136719 601.355469 "/></clipPath><clipPath id="ef450b12c0"><path d="M 960.136719 1253.296875 L 1070.542969 1253.296875 L 1070.542969 1683.09375 L 960.136719 1683.09375 Z M 960.136719 1253.296875 "/></clipPath><clipPath id="417c5d91b1"><path d="M 962.117188 426 L 1070.539062 426 L 1070.539062 710.957031 L 962.117188 710.957031 Z M 962.117188 426 "/></clipPath><clipPath id="0dde84cd77"><path d="M 1034.378906 430.046875 C 1028.820312 427.777344 1022.5 426.289062 1016.296875 426.289062 C 1010.097656 426.289062 1004.128906 427.566406 998.628906 429.835938 C 998.511719 429.90625 998.394531 429.90625 998.277344 429.976562 C 977.621094 439.0625 962.40625 463.050781 962.117188 493.847656 L 962.117188 710.957031 L 1070.539062 710.957031 L 1070.539062 494.007812 C 1070.246094 462.910156 1055.269531 438.921875 1034.378906 430.046875 Z M 1034.378906 430.046875 "/></clipPath><clipPath id="d8bab36795"><path d="M 637.082031 796.335938 L 710.753906 796.335938 L 710.753906 1660.558594 L 637.082031 1660.558594 Z M 637.082031 796.335938 "/></clipPath><clipPath id="8c526cdf61"><path d="M 710.753906 833.171875 L 710.753906 1623.574219 C 710.753906 1643.917969 694.261719 1660.410156 673.917969 1660.410156 C 653.574219 1660.410156 637.082031 1643.917969 637.082031 1623.574219 L 637.082031 833.171875 C 637.082031 812.828125 653.574219 796.335938 673.917969 796.335938 C 694.261719 796.335938 710.753906 812.828125 710.753906 833.171875 Z M 710.753906 833.171875 "/></clipPath><clipPath id="923ce91131"><path d="M 647.113281 796.335938 L 710.753906 796.335938 L 710.753906 1660.449219 L 647.113281 1660.449219 Z M 647.113281 796.335938 "/></clipPath><clipPath id="096d69d87e"><path d="M 710.753906 828.15625 L 710.753906 1628.589844 C 710.753906 1646.164062 696.507812 1660.410156 678.933594 1660.410156 C 661.359375 1660.410156 647.113281 1646.164062 647.113281 1628.589844 L 647.113281 828.15625 C 647.113281 810.582031 661.359375 796.335938 678.933594 796.335938 C 696.507812 796.335938 710.753906 810.582031 710.753906 828.15625 Z M 710.753906 828.15625 "/></clipPath><clipPath id="db13151be3"><path d="M 633.203125 534.820312 L 935.335938 534.820312 L 935.335938 757.078125 L 633.203125 757.078125 Z M 633.203125 534.820312 "/></clipPath><clipPath id="79bbd7ccd7"><path d="M 935.335938 714.371094 L 935.335938 577.523438 C 911.835938 577.523438 892.628906 558.519531 892.628906 534.820312 L 676.316406 534.820312 C 676.316406 558.316406 657.316406 577.523438 633.613281 577.523438 L 633.613281 714.371094 C 657.109375 714.371094 676.316406 733.375 676.316406 757.078125 L 892.628906 757.078125 C 892.628906 733.578125 911.632812 714.371094 935.335938 714.371094 Z M 935.335938 714.371094 "/></clipPath><clipPath id="79fa57833f"><path d="M 643.128906 518.5 L 945.261719 518.5 L 945.261719 740.757812 L 643.128906 740.757812 Z M 643.128906 518.5 "/></clipPath><clipPath id="fdedd3f3c0"><path d="M 945.261719 698.054688 L 945.261719 561.207031 C 921.761719 561.207031 902.554688 542.203125 902.554688 518.5 L 686.242188 518.5 C 686.242188 542 667.238281 561.207031 643.539062 561.207031 L 643.539062 698.054688 C 667.035156 698.054688 686.242188 717.058594 686.242188 740.757812 L 902.554688 740.757812 C 902.554688 717.261719 921.558594 698.054688 945.261719 698.054688 Z M 945.261719 698.054688 "/></clipPath><clipPath id="3157ad03d4"><path d="M 391.496094 728.144531 L 564.515625 728.144531 L 564.515625 1228.960938 L 391.496094 1228.960938 Z M 391.496094 728.144531 "/></clipPath><clipPath id="34c0029d19"><path d="M 554.261719 894.976562 C 560.453125 920.539062 564.515625 949.777344 564.515625 978.394531 C 564.515625 1007.007812 561.035156 1034.542969 554.84375 1059.917969 C 554.648438 1060.460938 554.648438 1061 554.457031 1061.539062 C 529.691406 1156.835938 464.296875 1227.023438 393.738281 1228.371094 L 391.496094 1228.371094 L 391.496094 728.144531 L 393.738281 728.144531 C 464.683594 729.492188 530.078125 798.601562 554.261719 894.976562 Z M 554.261719 894.976562 "/></clipPath><clipPath id="2c41fb16ba"><path d="M 394.964844 759.546875 L 560.375 759.546875 L 560.375 1215 L 394.964844 1215 Z M 394.964844 759.546875 "/></clipPath><clipPath id="e6c08f6668"><path d="M 550.441406 911.265625 C 556.4375 934.511719 560.375 961.101562 560.375 987.125 C 560.375 1013.148438 557 1038.191406 551.003906 1061.265625 C 550.816406 1061.757812 550.816406 1062.25 550.628906 1062.738281 C 526.632812 1149.402344 463.273438 1213.230469 394.964844 1214.460938 L 394.964844 759.546875 C 463.648438 760.773438 527.007812 823.621094 550.441406 911.265625 Z M 550.441406 911.265625 "/></clipPath><clipPath id="ac38f85399"><path d="M 324.742188 780.199219 L 490.152344 780.199219 L 490.152344 1194 L 324.742188 1194 Z M 324.742188 780.199219 "/></clipPath><clipPath id="4512a0f8c6"><path d="M 480.21875 918.144531 C 486.214844 939.277344 490.152344 963.453125 490.152344 987.113281 C 490.152344 1010.773438 486.777344 1033.542969 480.78125 1054.523438 C 480.59375 1054.96875 480.59375 1055.414062 480.40625 1055.863281 C 456.410156 1134.65625 393.054688 1192.6875 324.742188 1193.804688 L 324.742188 780.199219 C 393.425781 781.316406 456.785156 838.457031 480.21875 918.144531 Z M 480.21875 918.144531 "/></clipPath><clipPath id="a6b7d9fd0e"><path d="M 275.332031 487.457031 L 394.964844 487.457031 L 394.964844 1683.09375 L 275.332031 1683.09375 Z M 275.332031 487.457031 "/></clipPath><clipPath id="ef6998d57a"><path d="M 275.449219 490.925781 L 347.300781 490.925781 L 347.300781 1683.09375 L 275.449219 1683.09375 Z M 275.449219 490.925781 "/></clipPath><clipPath id="01b7dd2cdc"><path d="M 64.960938 775.632812 L 477.667969 775.632812 L 477.667969 1188.34375 L 64.960938 1188.34375 Z M 64.960938 775.632812 "/></clipPath><clipPath id="8ffe765d82"><path d="M 477.667969 981.988281 C 477.667969 868.023438 385.28125 775.632812 271.316406 775.632812 C 157.347656 775.632812 64.960938 868.023438 64.960938 981.988281 C 64.960938 1095.953125 157.347656 1188.34375 271.316406 1188.34375 C 385.28125 1188.34375 477.667969 1095.953125 477.667969 981.988281 Z M 477.667969 981.988281 "/></clipPath><clipPath id="34bc033741"><path d="M 64.964844 967.015625 L 478 967.015625 L 478 1188.34375 L 64.964844 1188.34375 Z M 64.964844 967.015625 "/></clipPath><clipPath id="f133d28f79"><path d="M 202.609375 1176.425781 C 223.765625 1183.621094 247.820312 1188.34375 271.429688 1188.34375 C 295.039062 1188.34375 317.757812 1184.296875 338.691406 1177.101562 C 339.136719 1176.875 339.582031 1176.875 340.027344 1176.652344 C 418.652344 1147.871094 476.558594 1071.867188 477.671875 989.417969 L 477.671875 967.015625 L 64.964844 967.015625 L 64.964844 989.402344 C 66.078125 1072.316406 123.09375 1148.320312 202.609375 1176.425781 Z M 202.609375 1176.425781 "/></clipPath><clipPath id="e9ffd780eb"><path d="M 134.832031 837.640625 L 416.070312 837.640625 L 416.070312 1118.878906 L 134.832031 1118.878906 Z M 134.832031 837.640625 "/></clipPath><clipPath id="0a256dc2bb"><path d="M 416.070312 978.257812 C 416.070312 900.597656 353.113281 837.640625 275.449219 837.640625 C 197.789062 837.640625 134.832031 900.597656 134.832031 978.257812 C 134.832031 1055.921875 197.789062 1118.878906 275.449219 1118.878906 C 353.113281 1118.878906 416.070312 1055.921875 416.070312 978.257812 Z M 416.070312 978.257812 "/></clipPath><clipPath id="d34b7c237e"><path d="M 134.835938 967.085938 L 416 967.085938 L 416 1117.910156 L 134.835938 1117.910156 Z M 134.835938 967.085938 "/></clipPath><clipPath id="e8c5354a8d"><path d="M 228.632812 1109.789062 C 243.050781 1114.691406 259.445312 1117.910156 275.53125 1117.910156 C 291.621094 1117.910156 307.101562 1115.152344 321.367188 1110.25 C 321.671875 1110.09375 321.972656 1110.09375 322.277344 1109.941406 C 375.855469 1090.328125 415.316406 1038.539062 416.074219 982.351562 L 416.074219 967.085938 L 134.835938 967.085938 L 134.835938 982.339844 C 135.59375 1038.84375 174.449219 1090.636719 228.632812 1109.789062 Z M 228.632812 1109.789062 "/></clipPath><clipPath id="2ab8bde683"><path d="M 668.847656 536.875 L 920.316406 536.875 L 920.316406 722.261719 L 668.847656 722.261719 Z M 668.847656 536.875 "/></clipPath><clipPath id="c9f7a64193"><path d="M 920.316406 686.523438 L 920.316406 572.46875 C 900.730469 572.46875 884.722656 556.628906 884.722656 536.875 L 704.441406 536.875 C 704.441406 556.460938 688.601562 572.46875 668.847656 572.46875 L 668.847656 686.523438 C 688.433594 686.523438 704.441406 702.359375 704.441406 722.113281 L 884.722656 722.113281 C 884.722656 702.53125 900.5625 686.523438 920.316406 686.523438 Z M 920.316406 686.523438 "/></clipPath><clipPath id="0be81792ec"><path d="M 152.625 855.433594 L 398.273438 855.433594 L 398.273438 1101.082031 L 152.625 1101.082031 Z M 152.625 855.433594 "/></clipPath><clipPath id="efc6fa4907"><path d="M 398.273438 978.257812 C 398.273438 910.425781 343.285156 855.433594 275.449219 855.433594 C 207.617188 855.433594 152.625 910.425781 152.625 978.257812 C 152.625 1046.09375 207.617188 1101.082031 275.449219 1101.082031 C 343.285156 1101.082031 398.273438 1046.09375 398.273438 978.257812 Z M 398.273438 978.257812 "/></clipPath><clipPath id="d752f768bc"><path d="M 152.632812 967.015625 L 398.609375 967.015625 L 398.609375 1098.753906 L 152.632812 1098.753906 Z M 152.632812 967.015625 "/></clipPath><clipPath id="13805561b9"><path d="M 234.558594 1091.660156 C 247.152344 1095.941406 261.46875 1098.753906 275.523438 1098.753906 C 289.574219 1098.753906 303.097656 1096.34375 315.558594 1092.0625 C 315.824219 1091.925781 316.089844 1091.925781 316.351562 1091.792969 C 363.148438 1074.664062 397.617188 1029.425781 398.28125 980.351562 L 398.28125 967.015625 L 152.632812 967.015625 L 152.632812 980.339844 C 153.296875 1029.695312 187.234375 1074.929688 234.558594 1091.660156 Z M 234.558594 1091.660156 "/></clipPath><clipPath id="9f403ed4ce"><path d="M 171.371094 874.179688 L 379.527344 874.179688 L 379.527344 1082.339844 L 171.371094 1082.339844 Z M 171.371094 874.179688 "/></clipPath><clipPath id="e802a0ac14"><path d="M 379.527344 978.257812 C 379.527344 920.777344 332.929688 874.179688 275.449219 874.179688 C 217.96875 874.179688 171.371094 920.777344 171.371094 978.257812 C 171.371094 1035.738281 217.96875 1082.339844 275.449219 1082.339844 C 332.929688 1082.339844 379.527344 1035.738281 379.527344 978.257812 Z M 379.527344 978.257812 "/></clipPath><clipPath id="2b5b36b521"><path d="M 171.382812 967.078125 L 379.972656 967.078125 L 379.972656 1083.417969 L 171.382812 1083.417969 Z M 171.382812 967.078125 "/></clipPath><clipPath id="07056b863b"><path d="M 240.804688 1077.40625 C 251.476562 1081.035156 263.609375 1083.417969 275.519531 1083.417969 C 287.425781 1083.417969 298.882812 1081.375 309.445312 1077.746094 C 309.667969 1077.632812 309.894531 1077.632812 310.117188 1077.519531 C 349.773438 1063.003906 378.980469 1024.671875 379.542969 982.980469 L 379.542969 967.078125 L 171.382812 967.078125 L 171.382812 982.96875 C 171.945312 1024.898438 200.703125 1063.230469 240.804688 1077.40625 Z M 240.804688 1077.40625 "/></clipPath><clipPath id="832d3b7c9b"><path d="M 233.082031 940.027344 L 309.546875 940.027344 L 309.546875 1016.492188 L 233.082031 1016.492188 Z M 233.082031 940.027344 "/></clipPath><clipPath id="48221fba7c"><path d="M 309.546875 978.257812 C 309.546875 957.144531 292.429688 940.027344 271.316406 940.027344 C 250.199219 940.027344 233.082031 957.144531 233.082031 978.257812 C 233.082031 999.375 250.199219 1016.492188 271.316406 1016.492188 C 292.429688 1016.492188 309.546875 999.375 309.546875 978.257812 Z M 309.546875 978.257812 "/></clipPath><clipPath id="3df3b364c7"><path d="M 233.085938 970.269531 L 309.640625 970.269531 L 309.640625 1016.492188 L 233.085938 1016.492188 Z M 233.085938 970.269531 "/></clipPath><clipPath id="7daf70acfd"><path d="M 258.589844 1014.28125 C 262.507812 1015.617188 266.964844 1016.492188 271.339844 1016.492188 C 275.714844 1016.492188 279.921875 1015.742188 283.800781 1014.40625 C 283.882812 1014.367188 283.964844 1014.367188 284.046875 1014.324219 C 298.617188 1008.992188 309.34375 994.910156 309.550781 979.519531 L 309.550781 970.269531 L 233.085938 970.269531 L 233.085938 979.511719 C 233.292969 994.992188 243.855469 1009.074219 258.589844 1014.28125 Z M 258.589844 1014.28125 "/></clipPath><clipPath id="9a35785c10"><path d="M 303.183594 476.414062 L 416.066406 476.414062 L 416.066406 722.363281 L 303.183594 722.363281 Z M 303.183594 476.414062 "/></clipPath><clipPath id="d8e13f7745"><path d="M 378.4375 716.507812 C 372.671875 720.042969 366.078125 722.363281 359.621094 722.363281 C 353.167969 722.363281 346.957031 720.375 341.234375 716.835938 C 341.113281 716.726562 340.992188 716.726562 340.867188 716.617188 C 319.375 702.46875 303.542969 665.105469 303.238281 621.527344 L 303.238281 476.421875 L 416.066406 476.421875 L 416.066406 621.417969 C 415.765625 665.324219 400.175781 702.6875 378.4375 716.507812 Z M 378.4375 716.507812 "/></clipPath><clipPath id="68a825fbfb"><path d="M 311.375 476.035156 L 407.445312 476.035156 L 407.445312 710.957031 L 311.375 710.957031 Z M 311.375 476.035156 "/></clipPath><clipPath id="7481aea7b9"><path d="M 375.40625 705.097656 C 370.496094 708.636719 364.882812 710.957031 359.386719 710.957031 C 353.890625 710.957031 348.601562 708.96875 343.726562 705.429688 C 343.625 705.320312 343.519531 705.320312 343.417969 705.207031 C 325.113281 691.054688 311.632812 653.679688 311.375 610.339844 L 311.375 476.347656 L 407.445312 476.347656 L 407.445312 610.238281 C 407.1875 653.902344 393.914062 691.277344 375.40625 705.097656 Z M 375.40625 705.097656 "/></clipPath><clipPath id="3ab98fd17b"><path d="M 332.546875 476.148438 L 407.445312 476.148438 L 407.445312 701.71875 L 332.546875 701.71875 Z M 332.546875 476.148438 "/></clipPath><clipPath id="b112ec1b4c"><path d="M 382.464844 695.859375 C 378.636719 699.398438 374.257812 701.71875 369.972656 701.71875 C 365.691406 701.71875 361.566406 699.730469 357.769531 696.191406 C 357.6875 696.082031 357.605469 696.082031 357.523438 695.96875 C 343.257812 681.816406 332.75 644.441406 332.546875 601.304688 L 332.546875 476.347656 L 407.445312 476.347656 L 407.445312 601.210938 C 407.242188 644.660156 396.894531 682.039062 382.464844 695.859375 Z M 382.464844 695.859375 "/></clipPath></defs><g id="178e995c02"><g clip-rule="nonzero" clip-path="url(#d8b197cad9)"><path style=" stroke:none;fill-rule:nonzero;fill:#726777;fill-opacity:1;" d="M 359.410156 393.664062 L 359.410156 694.761719 L 286.96875 694.761719 L 286.96875 393.664062 Z M 359.410156 393.664062 "/></g><g clip-rule="nonzero" clip-path="url(#63a543d143)"><path style=" stroke:none;fill-rule:nonzero;fill:#171212;fill-opacity:1;" d="M 324.742188 393.664062 L 324.742188 694.902344 L 288.519531 694.902344 L 288.519531 393.664062 Z M 324.742188 393.664062 "/></g><g clip-rule="nonzero" clip-path="url(#859f09deb0)"><path style=" stroke:none;fill-rule:nonzero;fill:#fc711c;fill-opacity:1;" d="M 974.488281 490.925781 L 974.488281 2056.523438 L 335.265625 2056.523438 L 335.265625 490.925781 Z M 974.488281 490.925781 "/></g><g clip-rule="nonzero" clip-path="url(#9a14c8c94c)"><path style=" stroke:none;fill-rule:nonzero;fill:#ab1224;fill-opacity:1;" d="M 619.285156 487.457031 L 619.285156 2052.425781 L 347.300781 2052.425781 L 347.300781 487.457031 Z M 619.285156 487.457031 "/></g><g clip-rule="nonzero" clip-path="url(#9481e20131)"><path style=" stroke:none;fill-rule:nonzero;fill:#292424;fill-opacity:1;" d="M 974.488281 775.632812 L 974.488281 1214.605469 L 614.308594 1214.605469 L 614.308594 775.632812 Z M 974.488281 775.632812 "/></g><g clip-rule="nonzero" clip-path="url(#2ee2a2e128)"><path style=" stroke:none;fill-rule:nonzero;fill:#292424;fill-opacity:1;" d="M 974.488281 1249.578125 L 974.488281 1688.546875 L 614.308594 1688.546875 L 614.308594 1249.578125 Z M 974.488281 1249.578125 "/></g><g clip-rule="nonzero" clip-path="url(#b5f1aef7a6)"><path style=" stroke:none;fill-rule:nonzero;fill:#2685b7;fill-opacity:1;" d="M 728.550781 775.632812 L 728.550781 1688.597656 L 619.285156 1688.597656 L 619.285156 775.632812 Z M 728.550781 775.632812 "/></g><g clip-rule="nonzero" clip-path="url(#d5fea7eebf)"><path style=" stroke:none;fill-rule:nonzero;fill:#1f4d9d;fill-opacity:1;" d="M 673.917969 775.632812 L 673.917969 1688.460938 L 616.796875 1688.460938 L 616.796875 775.632812 Z M 673.917969 775.632812 "/></g><g clip-rule="nonzero" clip-path="url(#b3da9a56ff)"><path style=" stroke:none;fill-rule:nonzero;fill:#d34124;fill-opacity:1;" d="M 974.488281 1236.683594 L 974.488281 1269.914062 L 728.511719 1269.914062 L 728.511719 1236.683594 Z M 974.488281 1236.683594 "/></g><g clip-rule="nonzero" clip-path="url(#b943f3cc14)"><path style=" stroke:none;fill-rule:nonzero;fill:#1f4d9d;fill-opacity:1;" d="M 1070.542969 601.355469 L 1070.542969 2086.695312 L 960.136719 2086.695312 L 960.136719 601.355469 Z M 1070.542969 601.355469 "/></g><g clip-rule="nonzero" clip-path="url(#ef450b12c0)"><path style=" stroke:none;fill-rule:nonzero;fill:#082761;fill-opacity:1;" d="M 1070.542969 1253.296875 L 1070.542969 2067.558594 L 960.136719 2067.558594 L 960.136719 1253.296875 Z M 1070.542969 1253.296875 "/></g><g clip-rule="nonzero" clip-path="url(#417c5d91b1)"><g clip-rule="nonzero" clip-path="url(#0dde84cd77)"><path style=" stroke:none;fill-rule:nonzero;fill:#1f4d9d;fill-opacity:1;" d="M 1070.539062 710.957031 L 962.117188 710.957031 L 962.117188 426.34375 L 1070.539062 426.34375 Z M 1070.539062 710.957031 "/></g></g><g clip-rule="nonzero" clip-path="url(#d8bab36795)"><g clip-rule="nonzero" clip-path="url(#8c526cdf61)"><path style=" stroke:none;fill-rule:nonzero;fill:#fda23e;fill-opacity:1;" d="M 710.753906 796.335938 L 710.753906 1660.269531 L 637.082031 1660.269531 L 637.082031 796.335938 Z M 710.753906 796.335938 "/></g></g><g clip-rule="nonzero" clip-path="url(#923ce91131)"><g clip-rule="nonzero" clip-path="url(#096d69d87e)"><path style=" stroke:none;fill-rule:nonzero;fill:#e8e65b;fill-opacity:1;" d="M 710.753906 796.335938 L 710.753906 1660.449219 L 647.113281 1660.449219 L 647.113281 796.335938 Z M 710.753906 796.335938 "/></g></g><g clip-rule="nonzero" clip-path="url(#db13151be3)"><g clip-rule="nonzero" clip-path="url(#79bbd7ccd7)"><path style=" stroke:none;fill-rule:nonzero;fill:#d34124;fill-opacity:1;" d="M 935.335938 534.820312 L 935.335938 757.078125 L 633.203125 757.078125 L 633.203125 534.820312 Z M 935.335938 534.820312 "/></g></g><g clip-rule="nonzero" clip-path="url(#79fa57833f)"><g clip-rule="nonzero" clip-path="url(#fdedd3f3c0)"><path style=" stroke:none;fill-rule:nonzero;fill:#fee8c4;fill-opacity:1;" d="M 945.261719 518.5 L 945.261719 740.757812 L 643.128906 740.757812 L 643.128906 518.5 Z M 945.261719 518.5 "/></g></g><g clip-rule="nonzero" clip-path="url(#3157ad03d4)"><g clip-rule="nonzero" clip-path="url(#34c0029d19)"><path style=" stroke:none;fill-rule:nonzero;fill:#514d80;fill-opacity:1;" d="M 564.515625 728.144531 L 564.515625 1228.285156 L 391.496094 1228.285156 L 391.496094 728.144531 Z M 564.515625 728.144531 "/></g></g><g clip-rule="nonzero" clip-path="url(#2c41fb16ba)"><g clip-rule="nonzero" clip-path="url(#e6c08f6668)"><path style=" stroke:none;fill-rule:nonzero;fill:#2b82c9;fill-opacity:1;" d="M 560.375 759.546875 L 560.375 1214.429688 L 394.964844 1214.429688 L 394.964844 759.546875 Z M 560.375 759.546875 "/></g></g><g clip-rule="nonzero" clip-path="url(#ac38f85399)"><g clip-rule="nonzero" clip-path="url(#4512a0f8c6)"><path style=" stroke:none;fill-rule:nonzero;fill:#1a5096;fill-opacity:1;" d="M 490.152344 780.199219 L 490.152344 1193.730469 L 324.742188 1193.730469 L 324.742188 780.199219 Z M 490.152344 780.199219 "/></g></g><g clip-rule="nonzero" clip-path="url(#a6b7d9fd0e)"><path style=" stroke:none;fill-rule:nonzero;fill:#6a6c78;fill-opacity:1;" d="M 394.964844 487.457031 L 394.964844 1748.257812 L 275.332031 1748.257812 L 275.332031 487.457031 Z M 394.964844 487.457031 "/></g><g clip-rule="nonzero" clip-path="url(#ef6998d57a)"><path style=" stroke:none;fill-rule:nonzero;fill:#514455;fill-opacity:1;" d="M 347.300781 490.925781 L 347.300781 1751.703125 L 275.449219 1751.703125 L 275.449219 490.925781 Z M 347.300781 490.925781 "/></g><g clip-rule="nonzero" clip-path="url(#01b7dd2cdc)"><g clip-rule="nonzero" clip-path="url(#8ffe765d82)"><path style=" stroke:none;fill-rule:nonzero;fill:#16110e;fill-opacity:1;" d="M 477.667969 775.632812 L 477.667969 1188.34375 L 64.960938 1188.34375 L 64.960938 775.632812 Z M 477.667969 775.632812 "/></g></g><g clip-rule="nonzero" clip-path="url(#34bc033741)"><g clip-rule="nonzero" clip-path="url(#f133d28f79)"><path style=" stroke:none;fill-rule:nonzero;fill:#000000;fill-opacity:1;" d="M 64.964844 967.015625 L 477.363281 967.015625 L 477.363281 1188.34375 L 64.964844 1188.34375 Z M 64.964844 967.015625 "/></g></g><g clip-rule="nonzero" clip-path="url(#e9ffd780eb)"><g clip-rule="nonzero" clip-path="url(#0a256dc2bb)"><path style=" stroke:none;fill-rule:nonzero;fill:#a8a0a8;fill-opacity:1;" d="M 416.070312 837.640625 L 416.070312 1118.878906 L 134.832031 1118.878906 L 134.832031 837.640625 Z M 416.070312 837.640625 "/></g></g><g clip-rule="nonzero" clip-path="url(#d34b7c237e)"><g clip-rule="nonzero" clip-path="url(#e8c5354a8d)"><path style=" stroke:none;fill-rule:nonzero;fill:#6b6a74;fill-opacity:1;" d="M 134.835938 967.085938 L 415.863281 967.085938 L 415.863281 1117.910156 L 134.835938 1117.910156 Z M 134.835938 967.085938 "/></g></g><g clip-rule="nonzero" clip-path="url(#2ab8bde683)"><g clip-rule="nonzero" clip-path="url(#c9f7a64193)"><path style="fill:none;stroke-width:6.531871;stroke-linecap:butt;stroke-linejoin:miter;stroke:#fc711c;stroke-opacity:1;stroke-miterlimit:4;" d="M 163.289631 -0.000639169 L 38.837702 -0.000639169 C 38.837702 21.370755 21.553896 38.837842 -0.000779287 38.837842 L -0.000779287 235.553556 C 21.370615 235.553556 38.837702 252.837362 38.837702 274.392037 L 163.289631 274.392037 C 163.289631 253.020643 180.569174 235.553556 202.123849 235.553556 L 202.123849 38.837842 C 180.756718 38.837842 163.289631 21.554036 163.289631 -0.000639169 Z M 163.289631 -0.000639169 " transform="matrix(0,0.916456,-0.916456,0,920.31582,536.875714)"/></g></g><g clip-rule="nonzero" clip-path="url(#0be81792ec)"><g clip-rule="nonzero" clip-path="url(#efc6fa4907)"><path style=" stroke:none;fill-rule:nonzero;fill:#726777;fill-opacity:1;" d="M 398.273438 855.433594 L 398.273438 1101.082031 L 152.625 1101.082031 L 152.625 855.433594 Z M 398.273438 855.433594 "/></g></g><g clip-rule="nonzero" clip-path="url(#d752f768bc)"><g clip-rule="nonzero" clip-path="url(#13805561b9)"><path style=" stroke:none;fill-rule:nonzero;fill:#51485c;fill-opacity:1;" d="M 152.632812 967.015625 L 398.097656 967.015625 L 398.097656 1098.753906 L 152.632812 1098.753906 Z M 152.632812 967.015625 "/></g></g><g clip-rule="nonzero" clip-path="url(#9f403ed4ce)"><g clip-rule="nonzero" clip-path="url(#e802a0ac14)"><path style=" stroke:none;fill-rule:nonzero;fill:#64485e;fill-opacity:1;" d="M 379.527344 874.179688 L 379.527344 1082.339844 L 171.371094 1082.339844 L 171.371094 874.179688 Z M 379.527344 874.179688 "/></g></g><g clip-rule="nonzero" clip-path="url(#2b5b36b521)"><g clip-rule="nonzero" clip-path="url(#07056b863b)"><path style=" stroke:none;fill-rule:nonzero;fill:#3d3d57;fill-opacity:1;" d="M 171.382812 967.078125 L 379.515625 967.078125 L 379.515625 1083.417969 L 171.382812 1083.417969 Z M 171.382812 967.078125 "/></g></g><g clip-rule="nonzero" clip-path="url(#832d3b7c9b)"><g clip-rule="nonzero" clip-path="url(#48221fba7c)"><path style=" stroke:none;fill-rule:nonzero;fill:#a69dab;fill-opacity:1;" d="M 309.546875 940.027344 L 309.546875 1016.492188 L 233.082031 1016.492188 L 233.082031 940.027344 Z M 309.546875 940.027344 "/></g></g><g clip-rule="nonzero" clip-path="url(#3df3b364c7)"><g clip-rule="nonzero" clip-path="url(#7daf70acfd)"><path style=" stroke:none;fill-rule:nonzero;fill:#6b6c75;fill-opacity:1;" d="M 233.085938 970.269531 L 309.640625 970.269531 L 309.640625 1016.492188 L 233.085938 1016.492188 Z M 233.085938 970.269531 "/></g></g><g clip-rule="nonzero" clip-path="url(#9a35785c10)"><g clip-rule="nonzero" clip-path="url(#d8e13f7745)"><path style="fill:none;stroke-width:19.595613;stroke-linecap:butt;stroke-linejoin:miter;stroke:#3d3d57;stroke-opacity:1;stroke-miterlimit:4;" d="M 41.012185 6.383347 C 47.295914 2.530519 54.482184 0.0017011 61.51945 0.0017011 C 68.552458 0.0017011 75.321516 2.168651 81.558415 6.025737 C 81.69039 6.14494 81.822366 6.14494 81.958598 6.264144 C 105.382092 21.683972 122.636803 62.404749 122.96887 109.898842 L 122.96887 268.043612 L 0.00191341 268.043612 L 0.00191341 110.018046 C 0.329723 62.166342 17.320484 21.445565 41.012185 6.383347 Z M 41.012185 6.383347 " transform="matrix(-0.917548,0,0,-0.917548,416.068162,722.364842)"/></g></g><g clip-rule="nonzero" clip-path="url(#68a825fbfb)"><g clip-rule="nonzero" clip-path="url(#7481aea7b9)"><path style=" stroke:none;fill-rule:nonzero;fill:#fda23e;fill-opacity:1;" d="M 407.445312 710.957031 L 311.375 710.957031 L 311.375 476.410156 L 407.445312 476.410156 Z M 407.445312 710.957031 "/></g></g><g clip-rule="nonzero" clip-path="url(#3ab98fd17b)"><g clip-rule="nonzero" clip-path="url(#b112ec1b4c)"><path style=" stroke:none;fill-rule:nonzero;fill:#f0e357;fill-opacity:1;" d="M 407.445312 701.71875 L 332.546875 701.71875 L 332.546875 476.441406 L 407.445312 476.441406 Z M 407.445312 701.71875 "/></g></g></g></svg>