<svg width="145" height="145" viewBox="0 0 145 145" fill="none" xmlns="http://www.w3.org/2000/svg">
<g clip-path="url(#clip0_295_529)">
<rect width="145" height="145" rx="28" fill="#FEFEFE"/>
<ellipse cx="81.794" cy="38.7221" rx="26.8174" ry="28.6544" fill="#F6DA23"/>
<path d="M90.0864 8.76512C106.789 13.606 116.562 30.8103 111.915 47.192C110.714 51.4269 108.664 55.1906 105.999 58.3625C105.872 58.7097 105.677 59.0425 105.406 59.3415L66.2831 102.526C64.6176 104.364 61.5645 103.48 61.1159 101.028L50.5791 43.4513C50.5062 43.0526 50.5143 42.6657 50.5882 42.3029C49.9917 38.186 50.2273 33.8963 51.4287 29.6615C56.0763 13.28 73.3837 3.9244 90.0864 8.76512ZM87.9519 19.6163C87.859 19.2402 87.395 19.1058 87.119 19.3749L84.1353 22.2853C83.8993 22.5155 83.5085 22.4557 83.3492 22.1652L81.5481 18.8817C81.3617 18.5421 80.8794 18.532 80.6823 18.8636L78.8409 21.9587C78.6725 22.2419 78.2812 22.2856 78.0526 22.0464L75.5745 19.4534C75.3074 19.1739 74.8395 19.2892 74.7342 19.6602L73.7478 23.1373C73.6578 23.4536 73.2928 23.5967 73.0112 23.426L69.95 21.5679C69.6206 21.3681 69.2008 21.6 69.1941 21.9853L69.1314 25.609C69.1257 25.9377 68.811 26.1699 68.4957 26.0786L65.0571 25.082C64.6885 24.9751 64.3439 25.3071 64.4356 25.6806L65.3036 29.201C65.3822 29.5197 65.1394 29.8249 64.8125 29.8192L61.2307 29.7572C60.848 29.7505 60.6023 30.1609 60.787 30.4979L62.527 33.6711C62.6843 33.9585 62.5298 34.3159 62.2139 34.3958L58.7324 35.2748C58.362 35.3683 58.2318 35.8277 58.4968 36.1053L60.9896 38.7149C61.2159 38.9518 61.1592 39.3386 60.875 39.4981L57.7345 41.2578C57.4011 41.4447 57.3944 41.9243 57.7223 42.1236L60.793 43.9876C61.0733 44.1578 61.1188 44.5476 60.8851 44.7758L58.3033 47.2964C58.0293 47.564 58.1477 48.0301 58.5165 48.137L61.9541 49.1333C62.2694 49.2247 62.4142 49.5911 62.2468 49.8729L60.401 52.9799C60.2047 53.3102 60.4391 53.7318 60.8232 53.7387L64.393 53.8003C64.7217 53.806 64.957 54.1233 64.8673 54.44L63.8806 57.918C63.7753 58.2892 64.1116 58.6376 64.4847 58.5435L67.9461 57.6708C68.2651 57.5906 68.574 57.8373 68.5685 58.1675L68.5071 61.7794C68.5005 62.1663 68.9148 62.4161 69.2509 62.2278L72.8574 60.2066C73.1449 60.0454 73.5076 60.2041 73.587 60.5258L74.4516 64.0259C74.5448 64.4017 75.009 64.5357 75.2848 64.2664L77.4353 62.1678C77.6711 61.9375 78.0622 61.9965 78.2217 62.2869L79.878 65.3078C80.0643 65.6476 80.5467 65.6577 80.7438 65.3259L82.5845 62.2296C82.7529 61.9468 83.1442 61.9032 83.3728 62.1419L85.8506 64.7359C86.1177 65.0155 86.5856 64.9002 86.6909 64.529L87.6776 61.0511C87.7675 60.7344 88.1334 60.5914 88.4152 60.7626L91.4761 62.6217C91.8055 62.8216 92.2254 62.5897 92.232 62.2043L92.2944 58.5815C92.3001 58.2527 92.615 58.0196 92.9303 58.111L96.368 59.1073C96.7368 59.2142 97.0816 58.8823 96.9895 58.5086L96.1199 54.9868C96.0413 54.6681 96.2844 54.362 96.6112 54.3676L100.194 54.4321C100.577 54.439 100.823 54.0285 100.638 53.6914L98.8974 50.517C98.7397 50.2294 98.8945 49.871 99.2109 49.7914L102.692 48.9154C103.063 48.822 103.193 48.3617 102.928 48.0839L100.437 45.4747C100.21 45.2376 100.267 44.8508 100.551 44.6915L103.691 42.9327C104.025 42.7457 104.031 42.2662 103.703 42.0669L100.631 40.2002C100.35 40.0298 100.305 39.6413 100.539 39.4132L103.121 36.8936C103.395 36.626 103.278 36.1592 102.909 36.0523L99.471 35.056C99.1557 34.9646 99.0107 34.5991 99.1781 34.3173L101.025 31.2106C101.221 30.8803 100.987 30.4587 100.603 30.4518L97.0324 30.388C96.7038 30.3821 96.4685 30.0649 96.5581 29.7483L97.5445 26.2713C97.6498 25.9002 97.3133 25.5526 96.9401 25.6467L93.4791 26.5184C93.1599 26.5987 92.8508 26.3522 92.8566 26.0218L92.9189 22.4101C92.9255 22.0234 92.5113 21.7736 92.1752 21.9618L89.5443 23.4351C89.2568 23.5961 88.8941 23.4374 88.8147 23.1158L87.9519 19.6163ZM85.343 26.6727C93.9258 29.1604 98.8885 38.2101 96.4277 46.8852C93.9666 55.5605 85.0134 60.5766 76.4302 58.0892C67.8471 55.6015 62.8843 46.5521 65.3455 37.8768C67.807 29.2018 76.7601 24.1852 85.343 26.6727ZM83.5012 47.6561C82.4405 47.3487 81.3361 47.9612 81.0344 49.0234L79.7529 53.5405C79.6853 53.7788 79.8263 54.0273 80.0655 54.0916C81.0855 54.3453 82.1292 54.4597 83.1502 54.4285C84.3171 54.3928 85.4326 54.1682 86.4318 53.7671C87.4308 53.3658 88.2959 52.796 88.9752 52.0905C90.0635 50.9589 89.1654 49.298 87.6535 48.8595L83.5012 47.6561ZM71.7494 44.2501C70.2373 43.812 68.6048 44.7394 68.9347 46.2822C69.1409 47.2445 69.5756 48.1909 70.2126 49.0663C70.8497 49.9417 71.6778 50.7296 72.6488 51.3849C73.0789 51.6752 73.5336 51.9373 74.0071 52.168C75.001 52.652 76.1167 52.024 76.4181 50.9614L77.2769 47.9344C77.578 46.8721 76.9623 45.7612 75.9018 45.4536L71.7494 44.2501ZM73.2075 35.3716C71.1939 34.7881 69.0971 35.9509 68.5244 37.9674C67.9522 39.9846 69.1211 42.0933 71.135 42.6771L76.2675 44.1646C77.3283 44.4718 78.4329 43.8598 78.7343 42.7973L79.7151 39.34C80.0162 38.2776 79.4005 37.1668 78.34 36.8592L73.2075 35.3716ZM85.9394 39.0617C84.8787 38.7543 83.7744 39.3668 83.4726 40.429L82.4918 43.8863C82.1903 44.9489 82.806 46.0596 83.8669 46.3671L88.9994 47.8546C91.0132 48.4381 93.1102 47.276 93.6825 45.2589C94.254 43.2421 93.0853 41.133 91.0719 40.5492L85.9394 39.0617ZM80.6192 28.8612C80.0968 28.8032 79.5735 28.782 79.0567 28.7978C77.89 28.8334 76.7742 29.0582 75.7751 29.4592C74.776 29.8603 73.9108 30.4313 73.2314 31.1367C72.1424 32.2684 73.0412 33.9284 74.5533 34.3667L78.7057 35.5702C79.7665 35.8774 80.8711 35.2654 81.1725 34.2029L82.0313 31.1758C82.3323 30.1135 81.7154 28.9832 80.6192 28.8612ZM88.1995 31.0592C87.2058 30.5752 86.0905 31.2027 85.7887 32.2648L84.93 35.2919C84.6285 36.3545 85.2442 37.4652 86.3051 37.7727L90.4574 38.9761C91.9696 39.4142 93.6021 38.4879 93.2719 36.945C93.0657 35.9828 92.6313 35.0353 91.9943 34.16C91.3573 33.2847 90.5289 32.4966 89.5581 31.8414C89.1281 31.5512 88.6729 31.2899 88.1995 31.0592ZM99.014 16.5725C98.5194 16.0859 97.6991 16.2388 97.4149 16.8706L95.5021 21.1264C95.4572 21.2264 95.429 21.3332 95.4184 21.4427L95.369 21.9571C95.3038 22.6357 95.9129 23.1847 96.5726 23.042L97.2808 22.8894C97.4151 22.8603 97.542 22.803 97.6532 22.7218L101.065 20.2295C101.564 19.865 101.615 19.1319 101.172 18.6955L99.014 16.5725Z" fill="#349C1C"/>
<ellipse cx="11.5817" cy="11.6372" rx="11.5817" ry="11.6372" transform="matrix(0.848236 0.529619 -0.52149 0.853257 53.3221 106.873)" fill="#FC711C"/>
</g>
<defs>
<clipPath id="clip0_295_529">
<rect width="145" height="145" rx="28" fill="white"/>
</clipPath>
</defs>
</svg>
